<svg width="1700" height="977" viewBox="0 0 1700 977" fill="none" xmlns="http://www.w3.org/2000/svg">
<path d="M1689.87 72.4532C1706.13 107.224 1698.46 152.033 1670.24 203.495C1642.04 254.93 1593.4 312.794 1528.16 373.489C1397.68 494.87 1200.92 627.41 968.812 742.309C736.703 857.207 513.26 932.675 339.654 961.824C252.844 976.399 178.553 979.383 121.892 969.96C65.1993 960.531 26.3893 938.727 10.1316 903.957C-6.12607 869.187 1.53776 824.378 29.7591 772.915C57.9649 721.48 106.595 663.616 171.841 602.921C302.322 481.54 499.08 349 731.188 234.101C963.297 119.203 1186.74 43.7355 1360.35 14.5866C1447.16 0.0111337 1521.45 -2.97288 1578.11 6.45066C1634.8 15.8793 1673.61 37.6829 1689.87 72.4532Z" stroke="black" stroke-width="2"/>
</svg>
